PathFileType	3	(X/Y/Z)	walking_3__fused_aligned.trc
DataRate	CameraRate	NumFrames	NumMarkers	Units	OrigDataRate	OrigDataStartFrame	OrigNumFrames
100.0	100.0	15	19	mm	100.0	2632	6307
Frame#	Time	pelvis			neck			head			hip_left			hip_right			knee_left			knee_right			ankle_left			ankle_right			heel_left			heel_right			toe_left			toe_right			shoulder_left			shoulder_right			elbow_left			elbow_right			wrist_left			wrist_right			
		X1	Y1	Z1	X2	Y2	Z2	X3	Y3	Z3	X4	Y4	Z4	X5	Y5	Z5	X6	Y6	Z6	X7	Y7	Z7	X8	Y8	Z8	X9	Y9	Z9	X10	Y10	Z10	X11	Y11	Z11	X12	Y12	Z12	X13	Y13	Z13	X14	Y14	Z14	X15	Y15	Z15	X16	Y16	Z16	X17	Y17	Z17	X18	Y18	Z18	X19	Y19	Z19	
2632	26.31000	-5.114264	939.855597	159.299336	-45.177073	1496.426978	277.462301	-52.567810	1561.350297	436.714052	74.575475	939.664127	160.582475	-84.803966	940.047039	158.016290	112.033933	541.471200	379.565782	-125.879704	493.564941	158.689605	114.296729	187.606202	267.394488	-133.783970	106.623965	-3.710302	111.503886	154.323264	230.186039	-132.227080	64.939990	-47.057233	100.660739	98.914849	400.306530	-143.021883	22.224046	165.821103	135.896598	1476.969218	215.586873	-220.285116	1426.007474	255.295334	221.057821	1205.779907	118.235803	-275.504147	1136.221053	270.591066	287.911669	949.778548	134.415694	-253.840641	942.473621	432.312926
2633	26.32000	-4.025116	939.638636	159.092327	-43.639895	1496.547246	276.693318	-50.218426	1561.486306	436.043006	75.650677	939.565837	160.562825	-83.700866	939.711401	157.621940	112.777187	542.333763	384.343091	-125.882625	492.142980	152.246611	116.193455	184.130154	281.712950	-134.408911	109.643361	-17.504561	113.734357	149.425647	245.404734	-132.682356	69.252577	-61.334305	101.552622	100.246661	418.496086	-144.453688	22.566890	148.009130	137.223425	1476.802623	213.549547	-219.301340	1426.209448	255.868685	221.606085	1205.854476	113.737867	-275.066783	1136.358190	274.795198	290.603030	948.218469	123.397781	-250.278461	944.941603	442.101766
2634	26.33000	-2.935968	939.421674	158.885319	-42.102718	1496.667514	275.924336	-47.869042	1561.622316	435.371960	76.725879	939.467547	160.543175	-82.597767	939.375763	157.227591	113.520440	543.196327	389.120399	-125.885546	490.721020	145.803616	118.090180	180.654107	296.031412	-135.033852	112.662757	-31.298820	115.964828	144.528030	260.623429	-133.137631	73.565163	-75.611378	102.444505	101.578473	436.685643	-145.885494	22.909735	130.197156	138.550251	1476.636029	211.512222	-218.317564	1426.411423	256.442036	222.154349	1205.929045	109.239931	-274.629419	1136.495328	278.999330	293.294390	946.658390	112.379869	-246.716280	947.409584	451.890606
2635	26.34000	-1.846820	939.204713	158.678310	-40.565540	1496.787781	275.155353	-45.519659	1561.758325	434.700915	77.801082	939.369257	160.523525	-81.494667	939.040124	156.833242	114.263694	544.058891	393.897708	-125.888468	489.299060	139.360621	119.986906	177.178060	310.349874	-135.658793	115.682153	-45.093079	118.195299	139.630413	275.842124	-133.592907	77.877749	-89.888451	103.336388	102.910285	454.875199	-147.317299	23.252580	112.385183	139.877077	1476.469434	209.474896	-217.333788	1426.613398	257.015387	222.702614	1206.003614	104.741995	-274.192054	1136.632466	283.203463	295.985750	945.098310	101.361956	-243.154099	949.877565	461.679446
2636	26.35000	-0.757673	938.987752	158.471302	-39.028363	1496.908049	274.386370	-43.170275	1561.894334	434.029869	78.876284	939.270967	160.503875	-80.391567	938.704486	156.438893	115.006948	544.921455	398.675016	-125.891389	487.877100	132.917627	121.883631	173.702013	324.668336	-136.283734	118.701549	-58.887338	120.425770	134.732796	291.060819	-134.048183	82.190336	-104.165523	104.228270	104.242097	473.064756	-148.749104	23.595425	94.573209	141.203904	1476.302840	207.437571	-216.350012	1426.815372	257.588738	223.250878	1206.078182	100.244059	-273.754690	1136.769604	287.407595	298.677111	943.538231	90.344044	-239.591919	952.345546	471.468287
2637	26.36000	0.331475	938.770790	158.264293	-37.491185	1497.028317	273.617388	-40.820891	1562.030344	433.358823	79.951486	939.172677	160.484225	-79.288468	938.368848	156.044543	115.750201	545.784019	403.452325	-125.894310	486.455139	126.474632	123.780357	170.225965	338.986798	-136.908675	121.720945	-72.681597	122.656241	129.835179	306.279514	-134.503459	86.502922	-118.442596	105.120153	105.573910	491.254313	-150.180909	23.938270	76.761236	142.530730	1476.136245	205.400245	-215.366236	1427.017347	258.162089	223.799142	1206.152751	95.746123	-273.317326	1136.906741	291.611727	301.368471	941.978152	79.326131	-236.029738	954.813527	481.257127
2638	26.37000	1.154993	938.315804	158.377945	-35.889826	1496.731379	272.907155	-38.649494	1561.728968	432.610951	80.743819	938.842934	160.651770	-78.433795	937.788626	156.104281	115.333144	545.439026	403.080651	-126.079345	486.097571	125.702181	123.439364	165.607358	346.629830	-137.467143	126.559910	-80.927978	122.413648	123.863545	314.550427	-134.903196	92.860312	-127.280450	104.655830	104.589893	503.132344	-151.075066	25.127664	64.029309	144.079622	1475.144029	204.316812	-214.171656	1427.103209	257.944474	224.424176	1204.993879	93.893870	-272.680196	1136.930549	293.269860	301.840239	940.725718	75.409959	-234.679164	956.338459	486.544925
2639	26.38000	1.978511	937.860817	158.491596	-34.288466	1496.434440	272.196923	-36.478096	1561.427592	431.863078	81.536152	938.513191	160.819314	-77.579123	937.208404	156.164019	114.916087	545.094033	402.708977	-126.264380	485.740002	124.929730	123.098371	160.988750	354.272862	-138.025612	131.398875	-89.174358	122.171056	117.891910	322.821341	-135.302932	99.217701	-136.118304	104.191506	103.605876	515.010375	-151.969223	26.317059	51.297383	145.628513	1474.151813	203.233380	-212.977076	1427.189071	257.726860	225.049211	1203.835007	92.041617	-272.043067	1136.954358	294.927993	302.312007	939.473285	71.493787	-233.328590	957.863390	491.832724
2640	26.39000	2.802029	937.405831	158.605247	-32.687107	1496.137502	271.486690	-34.306698	1561.126216	431.115206	82.328485	938.183448	160.986859	-76.724450	936.628182	156.223757	114.499030	544.749040	402.337304	-126.449415	485.382434	124.157279	122.757378	156.370142	361.915893	-138.584080	136.237839	-97.420738	121.928464	111.920275	331.092255	-135.702669	105.575091	-144.956158	103.727182	102.621859	526.888407	-152.863379	27.506454	38.565456	147.177405	1473.159598	202.149947	-211.782496	1427.274933	257.509246	225.674245	1202.676135	90.189363	-271.405937	1136.978166	296.586126	302.783775	938.220851	67.577614	-231.978016	959.388322	497.120522
2641	26.40000	3.625547	936.950844	158.718899	-31.085748	1495.840563	270.776458	-32.135300	1560.824841	430.367333	83.120818	937.853705	161.154404	-75.869778	936.047960	156.283495	114.081974	544.404047	401.965630	-126.634451	485.024866	123.384828	122.416385	151.751534	369.558925	-139.142548	141.076804	-105.667119	121.685871	105.948641	339.363169	-136.102405	111.932480	-153.794013	103.262858	101.637843	538.766438	-153.757536	28.695849	25.833529	148.726297	1472.167382	201.066514	-210.587916	1427.360795	257.291631	226.299280	1201.517263	88.337110	-270.768807	1137.001974	298.244259	303.255544	936.968417	63.661442	-230.627442	960.913254	502.408321
2642	26.41000	4.449065	936.495858	158.832550	-29.484388	1495.543625	270.066225	-29.963903	1560.523465	429.619461	83.913151	937.523961	161.321948	-75.015106	935.467738	156.343233	113.664917	544.059054	401.593956	-126.819486	484.667297	122.612377	122.075392	147.132926	377.201956	-139.701017	145.915769	-113.913499	121.443279	99.977006	347.634082	-136.502142	118.289870	-162.631867	102.798535	100.653826	550.644469	-154.651693	29.885244	13.101603	150.275188	1471.175166	199.983082	-209.393336	1427.446657	257.074017	226.924315	1200.358391	86.484857	-270.131677	1137.025782	299.902392	303.727312	935.715984	59.745270	-229.276868	962.438185	507.696119
2643	26.42000	5.272583	936.040871	158.946202	-27.883029	1495.246686	269.355993	-27.792505	1560.222089	428.871588	84.705484	937.194218	161.489493	-74.160433	934.887516	156.402971	113.247860	543.714061	401.222283	-127.004521	484.309729	121.839926	121.734399	142.514319	384.844988	-140.259485	150.754734	-122.159879	121.200686	94.005371	355.904996	-136.901878	124.647260	-171.469721	102.334211	99.669809	562.522501	-155.545849	31.074639	0.369676	151.824080	1470.182950	198.899649	-208.198756	1427.532519	256.856402	227.549349	1199.199519	84.632603	-269.494547	1137.049590	301.560524	304.199080	934.463550	55.829097	-227.926294	963.963117	512.983918
2644	26.43000	6.096101	935.585885	159.059853	-26.281670	1494.949748	268.645760	-25.621107	1559.920714	428.123716	85.497817	936.864475	161.657037	-73.305761	934.307294	156.462709	112.830803	543.369068	400.850609	-127.189556	483.952161	121.067475	121.393405	137.895711	392.488020	-140.817954	155.593699	-130.406260	120.958094	88.033737	364.175910	-137.301615	131.004649	-180.307575	101.869887	98.685792	574.400532	-156.440006	32.264034	-12.362250	153.372972	1469.190734	197.816216	-207.004176	1427.618381	256.638788	228.174384	1198.040647	82.780350	-268.857417	1137.073398	303.218657	304.670848	933.211117	51.912925	-226.575720	965.488049	518.271717
2645	26.44000	6.919619	935.130899	159.173505	-24.680310	1494.652809	267.935528	-23.449709	1559.619338	427.375844	86.290149	936.534732	161.824582	-72.451088	933.727072	156.522446	112.413746	543.024075	400.478935	-127.374591	483.594592	120.295024	121.052412	133.277103	400.131051	-141.376422	160.432663	-138.652640	120.715501	82.062102	372.446824	-137.701351	137.362039	-189.145429	101.405563	97.701776	586.278563	-157.334163	33.453429	-25.094177	154.921863	1468.198518	196.732784	-205.809596	1427.704243	256.421174	228.799418	1196.881775	80.928097	-268.220287	1137.097206	304.876790	305.142616	931.958683	47.996753	-225.225146	967.012981	523.559515
2646	26.45000	7.743137	934.675912	159.287156	-23.078951	1494.355871	267.225295	-21.278312	1559.317962	426.627971	87.082482	936.204989	161.992126	-71.596416	933.146850	156.582184	111.996689	542.679082	400.107262	-127.559627	483.237024	119.522573	120.711419	128.658495	407.774083	-141.934890	165.271628	-146.899020	120.472909	76.090467	380.717737	-138.101088	143.719428	-197.983284	100.941240	96.717759	598.156595	-158.228319	34.642824	-37.826104	156.470755	1467.206302	195.649351	-204.615016	1427.790105	256.203559	229.424453	1195.722903	79.075843	-267.583157	1137.121014	306.534923	305.614384	930.706249	44.080580	-223.874572	968.537912	528.847314
